<svg xmlns="http://www.w3.org/2000/svg" viewBox="0 0 612.27 261.49">
    <defs>
        <style>.cls-1{fill:#98d9f0;}.cls-2{fill:#3f9c35;}.cls-3{fill:#003591;}.cls-4{fill:#0f204b;}</style>
    </defs>
    <g id="Layer_2" data-name="Layer 2">
        <g id="Layer_1-2" data-name="Layer 1">
            <rect class="cls-1" width="612.27" height="73.1" />
            <rect class="cls-2" y="97.45" width="612.27" height="12.19" />
            <rect class="cls-3" y="121.79" width="612.27" height="24.35" />
            <path class="cls-4" d="M370.28,186.91q-9-4-21.49-4H306.23v78.62h42.56q12.48,0,21.49-4a29.77,29.77,0,0,0,13.84-12.15q4.81-8.13,4.82-20.39v-5.46q0-12.25-4.82-20.38A29.79,29.79,0,0,0,370.28,186.91Zm5.77,37.58q0,12.78-6.82,19t-20.33,6.19H319.34V194.72H348.9q13.52,0,20.33,6t6.82,19.13Z" />
            <polygon class="cls-4" points="487.37 244.31 426.57 182.87 419.34 182.87 413.79 182.87 413.79 261.49 426.57 261.49 426.57 200.13 487.37 261.49 500.27 261.49 500.27 182.87 487.37 182.87 487.37 244.31" />
            <polygon class="cls-4" points="598.28 182.87 568.2 244.31 538.11 182.87 523.33 182.87 562.75 261.49 572.91 261.49 612.22 182.87 598.28 182.87" />
        </g>
    </g>
</svg>